# xmcd
#
# Track frame offsets: 
#        150
#        18021
#        41089
#        58588
#        77438
#        99718
#        129035
#        150164
#        176592
#        200803
#        224209
#
# Disc length: 3221 seconds
#
# Revision: 0
# Processed by: cddbd v1.5.2PL0 Copyright (c) Steve Scherf et al.
# Submitted via: ExactAudioCopy v0.95a5
#
DISCID=8b0c930b
DTITLE=POINT BLANK - Fight On!
DYEAR=2008
DGENRE=Rock
TTITLE0=Down Not Dead
TTITLE1=Fight On!
TTITLE2=Deep Ellum Women
TTITLE3=Hit The Bottom
TTITLE4=Made Of Stone
TTITLE5=My Soul Cries Out
TTITLE6=Big White Horse
TTITLE7=Out Of Darkness
TTITLE8=Cold Day In Hell
TTITLE9=Undercover Lover
TTITLE10=Short Stack Of Blues
EXTD=
EXTT0=
EXTT1=
EXTT2=
EXTT3=
EXTT4=
EXTT5=
EXTT6=
EXTT7=
EXTT8=
EXTT9=
EXTT10=
PLAYORDER=
